<svg width="32" height="32" viewBox="0 0 32 32" fill="none" xmlns="http://www.w3.org/2000/svg">
<g clip-path="url(#clip0_3361_8710)">
<path d="M31.625 16.0552C31.625 24.6843 24.6291 31.6802 16 31.6802C7.37081 31.6802 0.375 24.6843 0.375 16.0552C0.375 7.42599 7.37081 0.430176 16 0.430176C24.6291 0.430176 31.625 7.42599 31.625 16.0552Z" fill="#374151"/>
<path d="M25.3342 17.3119V23.7541H21.5997V17.7443C21.5997 16.2348 21.0611 15.2039 19.7079 15.2039C18.6771 15.2039 18.0636 15.8988 17.793 16.5707C17.6938 16.8101 17.6693 17.1433 17.6693 17.4806V23.7542H13.9334C13.9334 23.7542 13.9837 13.5746 13.9334 12.5208H17.6693V14.1132C17.6625 14.1254 17.6516 14.1375 17.6448 14.1498H17.6693V14.1132C18.1657 13.349 19.051 12.2568 21.0352 12.2568C23.4928 12.2568 25.3342 13.8629 25.3342 17.3119ZM10.0275 7.10645C8.74906 7.10645 7.91406 7.94557 7.91406 9.0472C7.91406 10.1256 8.72463 10.9878 9.97856 10.9878H10.0017C11.3046 10.9878 12.1151 10.1257 12.1151 9.0472C12.0906 7.94563 11.3046 7.10645 10.0275 7.10645ZM8.13575 23.7542H11.8689V12.5208H8.13575V23.7542Z" fill="white"/>
</g>
<defs>
<clipPath id="clip0_3361_8710">
<rect width="32" height="32" fill="white"/>
</clipPath>
</defs>
</svg>
