<svg width="32" height="32" viewBox="0 0 32 32" fill="none" xmlns="http://www.w3.org/2000/svg">
<g clip-path="url(#clip0_3361_8720)">
<path d="M16 32C24.8366 32 32 24.8366 32 16C32 7.16344 24.8366 0 16 0C7.16344 0 0 7.16344 0 16C0 24.8366 7.16344 32 16 32Z" fill="#374151"/>
<path fill-rule="evenodd" clip-rule="evenodd" d="M24.6548 13.4799C24.5323 11.7924 24.2248 10.0499 22.0673 9.92236C18.0247 9.6919 13.9723 9.6919 9.92976 9.92236C7.77226 10.0474 7.46476 11.7924 7.34226 13.4799C7.21664 15.1575 7.21664 16.8422 7.34226 18.5199C7.46476 20.2074 7.77226 21.9499 9.92976 22.0774C13.9723 22.3078 18.0247 22.3078 22.0673 22.0774C24.2248 21.9524 24.5323 20.2074 24.6548 18.5199C24.7804 16.8422 24.7804 15.1575 24.6548 13.4799ZM14.2498 18.2499V13.2499L18.9998 15.7499L14.2498 18.2499Z" fill="white"/>
</g>
<defs>
<clipPath id="clip0_3361_8720">
<rect width="32" height="32" fill="white"/>
</clipPath>
</defs>
</svg>
