<svg width="48" height="48" viewBox="0 0 48 48" fill="none" xmlns="http://www.w3.org/2000/svg">
<rect width="48" height="48" rx="8" fill="white"/>
<g clip-path="url(#clip0_3407_9544)">
<path d="M27.5759 21.9099C31.1594 21.5899 32.4363 23.3536 32.5964 25.6773C32.6647 26.6686 33.9995 27.4217 34.7457 26.7653C36.1004 25.5736 37.5474 24.3003 38.2409 23.5964C39.4956 22.3229 38.9031 21.3259 38.5197 20.9462C34.5 16.9653 26.5442 9.36121 25.7635 8.59027C24.9828 7.81933 24.0209 7.90185 23.6375 8.28047L18.6884 13.099C13.5998 18.124 21.0235 22.495 27.5759 21.9099Z" stroke="#3293CF" stroke-width="2" stroke-linecap="round" stroke-linejoin="round"/>
<path d="M21.4241 26.0901C17.8406 26.4101 16.5637 24.6464 16.4036 22.3227C16.3353 21.3314 15.0005 20.5783 14.2543 21.2347C12.8996 22.4264 11.4526 23.6997 10.7591 24.4036C9.50441 25.6771 10.0969 26.6741 10.4803 27.0538C14.5 31.0347 22.4558 38.6388 23.2365 39.4097C24.0172 40.1807 24.9791 40.0981 25.3625 39.7195L30.3116 34.901C35.4002 29.876 27.9765 25.505 21.4241 26.0901Z" fill="#3293CF"/>
</g>
<defs>
<clipPath id="clip0_3407_9544">
<rect width="34" height="34" fill="white" transform="translate(7 7)"/>
</clipPath>
</defs>
</svg>
