<svg width="48" height="48" viewBox="0 0 48 48" fill="none" xmlns="http://www.w3.org/2000/svg">
<rect width="48" height="48" rx="8" fill="white"/>
<path d="M24.0008 24.9349C23.7806 24.9352 23.5677 24.8562 23.4008 24.7125L17.5852 19.7276L13.5761 23.7413C13.402 23.9095 13.1688 24.0025 12.9268 24.0004C12.6848 23.9983 12.4532 23.9013 12.2821 23.7301C12.1109 23.5589 12.0139 23.3274 12.0118 23.0854C12.0097 22.8433 12.1027 22.6102 12.2708 22.4361L16.8864 17.8205C17.0508 17.6563 17.2711 17.5602 17.5033 17.5513C17.7356 17.5424 17.9626 17.6214 18.1391 17.7725L23.9547 22.7573L34.4256 12.2818C34.5107 12.1936 34.6126 12.1233 34.7252 12.0749C34.8378 12.0266 34.959 12.0011 35.0815 12C35.2041 11.999 35.3257 12.0223 35.4391 12.0687C35.5525 12.1152 35.6556 12.1837 35.7423 12.2704C35.829 12.357 35.8975 12.4601 35.9439 12.5736C35.9903 12.687 36.0137 12.8086 36.0126 12.9311C36.0116 13.0537 35.9861 13.1748 35.9377 13.2875C35.8893 13.4001 35.819 13.5019 35.7308 13.5871L24.6535 24.6645C24.4804 24.8376 24.2457 24.9349 24.0008 24.9349Z" fill="#3293CF"/>
<path d="M35.0778 36.0124H12.9231C12.6783 36.0124 12.4435 35.9152 12.2704 35.7421C12.0973 35.569 12 35.3342 12 35.0893V27.7044C11.9999 27.566 12.031 27.4293 12.091 27.3045C12.1509 27.1797 12.2381 27.07 12.3462 26.9835L16.9617 23.291C17.1296 23.1569 17.339 23.0855 17.5539 23.0892C17.7687 23.0929 17.9756 23.1715 18.1387 23.3113L23.9802 28.3174L34.4538 18.717C34.5858 18.5959 34.7502 18.5158 34.9269 18.4865C35.1036 18.4573 35.285 18.48 35.449 18.552C35.613 18.624 35.7525 18.7422 35.8505 18.8922C35.9485 19.0421 36.0008 19.2173 36.0009 19.3964V35.0893C36.0009 35.3342 35.9037 35.569 35.7306 35.7421C35.5575 35.9152 35.3227 36.0124 35.0778 36.0124ZM13.8462 34.1662H34.1547V21.4946L24.6245 30.231C24.4582 30.3833 24.2418 30.4695 24.0163 30.4732C23.7908 30.477 23.5717 30.398 23.4004 30.2513L17.5184 25.212L13.8462 28.1475V34.1662Z" fill="#3293CF"/>
</svg>
