<svg width="48" height="48" viewBox="0 0 48 48" fill="none" xmlns="http://www.w3.org/2000/svg">
<rect width="48" height="48" rx="8" fill="white"/>
<path d="M33.3708 27.8427C33.5293 28.3182 33.2723 28.8323 32.7966 28.9909L28.7117 30.3525C28.2361 30.511 27.722 30.254 27.5634 29.7784C27.4049 29.3028 27.6619 28.7887 28.1376 28.6301L32.2225 27.2685C32.6981 27.11 33.2122 27.367 33.3708 27.8427Z" fill="#3293CF"/>
<path fill-rule="evenodd" clip-rule="evenodd" d="M8.62047 22.3927L11.6308 23.3962V31.0631C11.6308 31.45 11.876 31.7944 12.2417 31.9209L24.0354 36.0033C24.2157 36.0677 24.4176 36.0755 24.6133 36.0136L24.6265 36.0092L24.6403 36.0046L36.4375 31.9209C36.8031 31.7944 37.0483 31.45 37.0483 31.0631V23.3962L40.0586 22.3927C40.3402 22.2989 40.5582 22.0733 40.6422 21.7886C40.7263 21.504 40.6658 21.1962 40.4805 20.9644L36.8494 16.4256C36.7392 16.2879 36.5947 16.1889 36.4355 16.1341L24.6365 12.0499C24.4441 11.9834 24.235 11.9834 24.0426 12.0499L12.2437 16.1342C12.0844 16.1889 11.9399 16.2879 11.8297 16.4256L8.19868 20.9644C8.01327 21.1962 7.95288 21.504 8.03694 21.7886C8.12099 22.0733 8.3389 22.2989 8.62047 22.3927ZM21.906 26.1371L23.4318 23.9574V33.8732L13.4464 30.4167V24.0014L20.8753 26.4777C21.2564 26.6047 21.6757 26.4662 21.906 26.1371ZM15.3137 16.9927L24.3396 20.117L33.3654 16.9927L24.3396 13.8683L15.3137 16.9927ZM26.7731 26.1371L25.2473 23.9574V33.8732L35.2328 30.4167V24.0014L27.8038 26.4777C27.4227 26.6047 27.0034 26.4662 26.7731 26.1371ZM12.8471 18.0601L10.4296 21.082L15.4326 22.7497L20.8071 24.5411L22.9064 21.5422L22.7837 21.4998L12.8471 18.0601ZM38.2495 21.082L35.832 18.0601L25.7728 21.5422L27.8721 24.5411L38.2495 21.082Z" fill="#3293CF"/>
</svg>
