<svg width="48" height="48" viewBox="0 0 48 48" fill="none" xmlns="http://www.w3.org/2000/svg">
<rect width="48" height="48" rx="8" fill="white"/>
<path d="M13 33.2857C13 33.3786 13 33.4714 13.0917 33.5643V33.75C13.0917 33.8429 13.1833 33.9357 13.275 33.9357C13.3667 34.0286 13.4583 34.0286 13.4583 34.1214H13.55C13.7333 34.2143 13.825 34.2143 13.9167 34.2143H20.425C20.7917 35.7929 22.2583 37 24 37C25.7417 37 27.1167 35.7929 27.575 34.2143H34.0833C34.6333 34.2143 35 33.8429 35 33.2857C35 33.0071 34.9083 32.8214 34.725 32.6357L33.1667 30.2214V25.8571C33.1667 21.7714 30.5083 18.2429 26.8417 17.0357C27.3917 16.3857 27.6667 15.55 27.6667 14.7143C27.6667 12.6714 26.0167 11 24 11C21.9833 11 20.3333 12.6714 20.3333 14.7143C20.3333 15.55 20.6083 16.3857 21.1583 17.0357C17.4917 18.2429 14.8333 21.7714 14.8333 25.8571V30.2214L13.1833 32.7286C13.1833 32.7286 13.1833 32.8214 13.0917 32.8214V32.9143C13 33.1 13 33.1929 13 33.2857ZM24 35.1429C23.3583 35.1429 22.7167 34.7714 22.4417 34.2143H25.5583C25.2833 34.7714 24.6417 35.1429 24 35.1429ZM22.1667 14.7143C22.1667 13.6929 22.9917 12.8571 24 12.8571C25.0083 12.8571 25.8333 13.6929 25.8333 14.7143C25.8333 15.7357 25.0083 16.5714 24 16.5714C22.9917 16.5714 22.1667 15.7357 22.1667 14.7143ZM16.4833 31.0571C16.575 30.8714 16.6667 30.6857 16.6667 30.5V25.8571C16.6667 21.7714 19.9667 18.4286 24 18.4286C28.0333 18.4286 31.3333 21.7714 31.3333 25.8571V30.5C31.3333 30.6857 31.425 30.8714 31.5167 31.0571L32.4333 32.3571H15.6583L16.4833 31.0571Z" fill="#3293CF"/>
</svg>
