<svg width="48" height="48" viewBox="0 0 48 48" fill="none" xmlns="http://www.w3.org/2000/svg">
<rect width="48" height="48" rx="8" fill="white"/>
<path fill-rule="evenodd" clip-rule="evenodd" d="M15 19.6H11C10.7791 19.6 10.6 19.7791 10.6 20V34C10.6 34.2209 10.7791 34.4 11 34.4H15C15.2209 34.4 15.4 34.2209 15.4 34V20C15.4 19.7791 15.2209 19.6 15 19.6ZM11 18C9.89543 18 9 18.8954 9 20V34C9 35.1046 9.89543 36 11 36H15C16.1046 36 17 35.1046 17 34V20C17 18.8954 16.1046 18 15 18H11Z" fill="#3293CF"/>
<path fill-rule="evenodd" clip-rule="evenodd" d="M26 12.6H22C21.7791 12.6 21.6 12.7791 21.6 13V34C21.6 34.2209 21.7791 34.4 22 34.4H26C26.2209 34.4 26.4 34.2209 26.4 34V13C26.4 12.7791 26.2209 12.6 26 12.6ZM22 11C20.8954 11 20 11.8954 20 13V34C20 35.1046 20.8954 36 22 36H26C27.1046 36 28 35.1046 28 34V13C28 11.8954 27.1046 11 26 11H22Z" fill="#3293CF"/>
<path fill-rule="evenodd" clip-rule="evenodd" d="M38 24.6H33C32.7791 24.6 32.6 24.7791 32.6 25V34C32.6 34.2209 32.7791 34.4 33 34.4H38C38.2209 34.4 38.4 34.2209 38.4 34V25C38.4 24.7791 38.2209 24.6 38 24.6ZM33 23C31.8954 23 31 23.8954 31 25V34C31 35.1046 31.8954 36 33 36H38C39.1046 36 40 35.1046 40 34V25C40 23.8954 39.1046 23 38 23H33Z" fill="#3293CF"/>
</svg>
