<svg width="72" height="24" viewBox="0 0 72 24" fill="none" xmlns="http://www.w3.org/2000/svg">
<g clip-path="url(#clip0_3326_8220)">
<path fill-rule="evenodd" clip-rule="evenodd" d="M0.473047 12.6L2.47305 9.46667C2.53971 9.33333 2.67305 9.13333 2.73971 9L4.40638 6.46667C4.60638 6.2 4.87305 5.93333 5.20638 5.73333L9.80638 3.06667L10.873 0.866667C11.2064 0.333333 11.8064 0 12.3397 0C12.5397 0 12.673 0 12.8064 0.0666667L20.273 2.6C20.6064 2.66667 20.9397 2.93333 21.2064 3.2L23.2064 5.33333C23.4064 5.53333 23.6064 5.8 23.673 6L25.273 9C25.473 9.4 25.5397 9.86667 25.473 10.2667L24.473 15.7333L24.8064 16.0667C25.273 16.5333 25.4064 17.2 25.2064 17.8L25.073 18.2667C24.873 18.8667 24.273 19.2667 23.673 19.2667C23.4064 19.2667 23.2064 19.2 23.0064 19.1333L22.5397 18.8667C22.4064 18.7333 22.1397 18.6667 22.0064 18.5333L21.3397 18.2C20.8064 17.8667 20.473 17.2667 20.473 16.6667L20.673 12L19.9397 12.2667L18.4064 19.2667C18.273 20 17.6064 20.5333 16.873 20.5333H14.7397C14.073 20.5333 13.4064 20.0667 13.2064 19.4L12.273 16.6L10.8064 16.7333L9.33971 19.6C9.07305 20.1333 8.47305 20.5333 7.80638 20.5333H5.47305C4.73971 20.5333 4.07305 19.9333 3.93971 19.2L3.13971 14.2L2.40638 14.5333C2.13971 14.7333 1.87305 14.6667 1.60638 14.6667C1.13971 14.6667 0.673047 14.4 0.473047 14C0.273047 13.8 0.0730468 13.2 0.473047 12.6ZM18.673 11.1333L18.8064 11.0667C18.873 11.0667 18.9397 11 19.0064 11L20.4064 10.4667C20.5397 10.4 20.8064 10.3333 20.9397 10.3333L21.7397 10.1333H21.8064C21.9397 10.1333 22.0064 10.2 22.1397 10.2667C22.2064 10.3333 22.273 10.4667 22.273 10.6L22.073 16.7333L22.1397 16.8667L22.8064 17.2C22.873 17.3333 23.073 17.4 23.2064 17.4667L23.673 17.6667L23.8064 17.2667V17.1333L23.1397 16.4667C23.0064 16.3333 22.873 16.0667 22.9397 15.8L24.0064 10C24.0064 9.93333 24.0064 9.73333 23.9397 9.66667L22.3397 6.66667C22.273 6.53333 22.1397 6.4 22.073 6.33333L20.073 4.2C20.0064 4.13333 19.873 4.06667 19.7397 4L12.4064 1.53333L11.2064 3.86667C11.1397 3.93333 11.1397 4 11.1397 4.06667L11.4064 7.6L15.673 11.5333L18.673 11.1333ZM3.53971 12.0667C3.67305 12 3.80638 11.9333 3.93971 11.9333C4.27305 11.9333 4.33971 12 4.40638 12.3333L5.53971 18.7333H7.73971L9.40638 15.5333C9.53971 15.2667 9.87305 15.0667 10.1397 15L12.8064 14.7333H12.873C13.2064 14.7333 13.5397 14.9333 13.673 15.2667L14.8064 18.6667H16.7397L18.073 12.8L16.0064 13.0667C15.873 13.0667 15.8064 13.0667 15.673 13.0667C15.273 13.0667 14.873 12.9333 14.6064 12.6667L10.073 8.46667C9.73971 8.13333 9.53971 7.66667 9.53971 7.26667V5L6.20638 7.2L6.00638 7.4L4.20638 9.93333C4.13971 10.0667 4.00638 10.2 3.93971 10.3333C3.93971 10.3333 1.73971 13 1.87305 13.1333C1.93971 13.3333 3.53971 12.0667 3.53971 12.0667Z" fill="#334155"/>
<path fill-rule="evenodd" clip-rule="evenodd" d="M40.3327 9.86668C40.9327 10 41.1993 10.2667 41.1327 10.8L38.9327 18.8667C38.866 19.4667 38.466 19.8 37.7993 19.8C37.1327 19.8 36.666 19.5334 36.5327 19L34.866 12.4667L33.3327 18.8667C33.1993 19.4667 32.7327 19.7334 32.066 19.7334C31.3327 19.7334 30.9327 19.4667 30.7993 18.8L28.866 10.7333C28.666 10.2667 28.866 9.93335 29.466 9.73335C30.066 9.60002 30.466 9.73335 30.666 10.1333L32.1327 16.6667L33.5994 10.5333C33.7327 10.0667 34.066 9.86668 34.7327 9.86668C35.3993 9.86668 35.7993 10.0667 35.9993 10.5333L37.666 16.5333L39.266 10.2C39.3327 9.93335 39.666 9.80002 40.3327 9.86668Z" fill="#334155"/>
<path fill-rule="evenodd" clip-rule="evenodd" d="M49.7324 9.66675C48.999 9.66675 48.6657 9.86675 48.7324 10.3334V10.8667C48.3324 10.2667 47.799 9.93341 47.1324 9.80008C46.4657 9.66675 45.799 9.73341 45.0657 9.86675C44.3324 10.0667 43.6657 10.5334 42.9324 11.2667C42.199 12.0667 41.799 13.1334 41.6657 14.4667C41.5324 15.8001 41.8657 17.0001 42.5324 18.0001C43.2657 19.0001 44.199 19.5334 45.4657 19.6667C46.7324 19.8001 47.799 19.2667 48.799 18.0001V18.9334C48.799 19.4001 49.1324 19.6667 49.7324 19.6667C50.399 19.6667 50.6657 19.4001 50.7324 18.9334V10.3334C50.799 9.93341 50.4657 9.66675 49.7324 9.66675ZM48.7324 15.6667C48.2657 16.9334 47.399 17.6001 46.1324 17.6667C44.9324 17.6667 44.1324 17.2667 43.7324 16.3334C43.399 15.4001 43.399 14.4667 43.799 13.5334C44.199 12.6001 44.7324 12.0001 45.4657 11.8001C46.199 11.6001 46.799 11.6001 47.3324 11.8667C47.8657 12.1334 48.3324 12.5334 48.6657 13.0667V15.6667H48.7324Z" fill="#334155"/>
<path fill-rule="evenodd" clip-rule="evenodd" d="M54.5342 15.9332C54.6009 16.9332 55.0009 17.5332 55.7342 17.7332C56.4009 18.1332 56.5342 18.5999 56.2009 19.1999C55.8675 19.7999 55.3342 19.9332 54.5342 19.5999C53.1342 18.9999 52.4009 17.9332 52.4009 16.5332V6.46655C52.3342 5.79989 52.6675 5.46655 53.4675 5.46655C54.2675 5.46655 54.6009 5.79989 54.4675 6.46655L54.5342 15.9332Z" fill="#334155"/>
<path fill-rule="evenodd" clip-rule="evenodd" d="M59.667 15.9332C59.7337 16.9332 60.1337 17.5332 60.867 17.7332C61.5337 18.1332 61.667 18.5999 61.3337 19.1999C61.0004 19.7999 60.467 19.9332 59.667 19.5999C58.267 18.9999 57.5337 17.9332 57.5337 16.5332V6.46655C57.467 5.79989 57.8004 5.46655 58.6004 5.46655C59.4004 5.46655 59.7337 5.79989 59.6004 6.46655L59.667 15.9332Z" fill="#334155"/>
<path fill-rule="evenodd" clip-rule="evenodd" d="M71.8003 11.3333L66.3336 23.3333C66.0669 24 65.6003 24.2 64.9336 23.8667C64.2669 23.5333 64.1336 23.0667 64.5336 22.4L66.2003 18.7333L62.4669 11.5333C62.0669 10.8 62.2003 10.2667 62.8003 9.93333C63.4669 9.66667 63.9336 9.86667 64.2669 10.6L67.3336 16.6667L69.9336 10.6667C70.2003 9.93333 70.6669 9.66667 71.3336 9.93333C72.0003 10.0667 72.1336 10.6 71.8003 11.3333Z" fill="#334155"/>
</g>
<defs>
<clipPath id="clip0_3326_8220">
<rect width="72" height="24" fill="white"/>
</clipPath>
</defs>
</svg>
